<svg xmlns="http://www.w3.org/2000/svg" width="352.517" height="299.25" viewBox="0 0 352.517 299.25">
  <g id="how-to-buy" transform="translate(0 -0.076)">
    <g id="Others_Successfully_2_Copy" data-name="Others/Successfully/2 Copy">
      <g id="Group">
        <path id="Fill_159" data-name="Fill 159" d="M-120.515,32.841a15.28,15.28,0,0,1,11.9,5.559,26.6,26.6,0,0,1,13.619-3.721,26.941,26.941,0,0,1,3.456.246,18.579,18.579,0,0,1-.882-5.626c0-10.863,9.379-19.67,20.954-19.67a21.684,21.684,0,0,1,13.513,4.649A31.6,31.6,0,0,1-31.2,0C-13.968,0,0,13.116,0,29.3,0,45.081-13.3,57.912-29.938,58.539c0,.036.006.073.006.112,0,13.238-11.429,23.973-25.527,23.973a26.15,26.15,0,0,1-19.768-8.807,26.127,26.127,0,0,1-19.765,8.807c-13.264,0-24.16-9.51-25.4-21.665-.045,0-.084.006-.123.006-8.274,0-14.979-6.293-14.979-14.062s6.7-14.062,14.979-14.062" transform="translate(135.494 121.028)" fill="rgba(66,116,155,0.1)"/>
        <path id="Fill_115" data-name="Fill 115" d="M9.465,8.473a9.638,9.638,0,0,1,6.41,3.646,17.428,17.428,0,0,1,7.979-.641,18.413,18.413,0,0,1,1.946.4,7.724,7.724,0,0,1-.138-2.758c.7-5.185,6.594-8.607,13.17-7.643a14.176,14.176,0,0,1,7.38,3.345C49.862,1.2,55.868-.707,62.334.241,72.126,1.677,79.22,9.1,78.18,16.826c-1.015,7.533-9.394,12.549-18.892,11.462,0,.017,0,.035,0,.053-.851,6.32-8.037,10.491-16.05,9.316a16.591,16.591,0,0,1-10.666-5.851,16.222,16.222,0,0,1-11.8,2.556C13.231,33.257,7.65,27.809,7.727,21.9c-.024,0-.046,0-.07-.007-4.7-.69-8.108-4.252-7.608-7.96S4.763,7.783,9.465,8.473Z" transform="translate(274.236 66.719)" fill="rgba(66,116,155,0.1)"/>
        <path id="Fill_158" data-name="Fill 158" d="M89.219,22.648c0-5.664-4.974-10.259-11.105-10.259a11.718,11.718,0,0,0-5.974,1.62,19.83,19.83,0,0,0-11.69-3.75,21.01,21.01,0,0,0-2.592.181c0-.06.01-.121.01-.181C57.868,4.593,52.9,0,46.763,0a11.236,11.236,0,0,0-9.84,5.514,24.263,24.263,0,0,0-13.787-4.24C10.358,1.274,0,10.844,0,22.648S10.358,44.023,23.136,44.023c8.288,0,29.219,1.211,37.314,1.211,8.517,0,15.718-5.2,18.1-12.347,5.931-.21,10.673-4.707,10.673-10.239" transform="translate(168.357 0.076)" fill="rgba(66,116,155,0.1)"/>
      </g>
      <path id="Fill_1" data-name="Fill 1" d="M124.224,0A207.4,207.4,0,0,0,100.45,1.168c-2.984.353-5.907,1.13-8.9,1.444-5.975.626-11.843,1.794-17.839,2.333-4.829.434-9.678.69-14.492,1.24a47.969,47.969,0,0,1-13.991-.456,88.293,88.293,0,0,1-9.908-2A38.271,38.271,0,0,0,23.912,1.813c-5.419.042-10.7.047-15.882,2.049A15.423,15.423,0,0,0,2.6,7.2C-.565,10.573-.994,19,2.166,22.5c5.322,5.895,16.68,8.208,24.14,8.317,8.174.12,16.115-.526,24.3-.906,7.607-.353,15.195-.855,22.814-.837,15.562.036,31.126,0,46.66-1.106,14.594-1.039,29.225-.683,43.852-.683,15,0,29.9.126,44.786,2.247,6.488.924,13.1,1.248,19.618,1.9,5.84.58,11.452-.011,17.268-.547a39.274,39.274,0,0,0,14.173-4.042c3.512-1.786,9.774-7.336,10.851-11.6C273.649,3.286,228.074,3.573,221.077,3.6c-7.828.03-15.718.3-23.54-.013a52.365,52.365,0,0,1-9.743-1.568c-3.2-.747-6.421-.557-9.665-.871C164.6-.161,151.046.03,137.476.03c-4.416,0-8.834-.041-13.252-.027" transform="translate(41.264 267.658)" fill="rgba(66,116,155,0.1)"/>
      <g id="Group_57" data-name="Group 57" transform="translate(51.301 68.66)">
        <path id="Fill_1-2" data-name="Fill 1" d="M117.627,201.5,4.413,201.411A4.5,4.5,0,0,1,0,196.829L.145,4.575A4.5,4.5,0,0,1,4.565,0L117.778.092a4.5,4.5,0,0,1,4.413,4.581l-.145,192.255a4.5,4.5,0,0,1-4.42,4.574" transform="translate(62.187 9.107)" fill="#d8d8d8"/>
        <path id="Fill_3" data-name="Fill 3" d="M110.06,173.042,0,172.953.131,0l110.06.089Z" transform="translate(67.642 19.353)" fill="#bebebe"/>
        <path id="Fill_5" data-name="Fill 5" d="M13.089,3.415,0,3.4,0,0,13.092.012Z" transform="translate(116.737 200.364)" fill="#fff"/>
        <path id="Fill_7" data-name="Fill 7" d="M.113,0,0,147.908,110.191,148Z" transform="translate(67.642 43.26)" fill="#bebebe"/>
        <path id="Fill_9" data-name="Fill 9" d="M0,75.137H98.19V0H0Z" transform="translate(73.097 110.428)" fill="#d2e7ee"/>
        <path id="Fill_11" data-name="Fill 11" d="M0,54.645H98.19V0H0Z" transform="translate(73.097 51.229)" fill="#d2e7ee"/>
        <path id="Fill_12" data-name="Fill 12" d="M0,23.907H98.19V0H0Z" transform="translate(73.097 23.907)" fill="#d2e7ee"/>
        <path id="Fill_13" data-name="Fill 13" d="M0,3.415H26.184V0H0Z" transform="translate(81.825 175.319)" fill="#5e76fa"/>
        <path id="Fill_14" data-name="Fill 14" d="M0,3.415H26.184V0H0Z" transform="translate(111.282 175.319)" fill="silver"/>
        <path id="Fill_15" data-name="Fill 15" d="M0,3.415H26.184V0H0Z" transform="translate(140.739 175.319)" fill="silver"/>
        <path id="Fill_16" data-name="Fill 16" d="M0,4.695.709,36.238,6.8,84.244l6.891-.132L14.7,45.128,25.093,0Z" transform="translate(204.016 121.812)" fill="#58585b"/>
        <path id="Fill_17" data-name="Fill 17" d="M0,0,7.856,43.631,19.126,88.8l6.442-.956L23.595,42.674,26.184.513Z" transform="translate(217.108 117.258)" fill="#58585b"/>
        <path id="Fill_18" data-name="Fill 18" d="M4.331.015,0,2.679.463,5.692l9.356-.808L9.789,0Z" transform="translate(207.289 206.056)" fill="#3b2c24"/>
        <path id="Fill_19" data-name="Fill 19" d="M3.089.761,0,4.575,1.51,6.831,8.728,3.053,7.53,0Z" transform="translate(234.564 206.056)" fill="#3b2c24"/>
        <path id="Fill_20" data-name="Fill 20" d="M0,5.221C.234,5.053,1.988,0,1.988,0L5.237,1.535l.218,7.739s-1.088,2.111-1.74,2.111-3.48-.11-3.263-.407S0,5.221,0,5.221" transform="translate(44.731 31.876)" fill="#f5ceb0"/>
        <path id="Fill_21" data-name="Fill 21" d="M.246,5.466C.164,5.46.083,5.45,0,5.447H.228c.015-.236.043-.471.08-.7h0A8.029,8.029,0,0,1,2.926,0,7.084,7.084,0,0,1,7.732,4.23a6.856,6.856,0,0,1,.447,2.714h0s0,.014,0,.034c0,.082-.009.164-.015.246a21.942,21.942,0,0,0,3.216,12.3c3.8,5.845,2.635,8.294,2.635,8.294S8.4,30.883,4.426,30.732C.55,30.585-.526,15.1.246,5.466" transform="translate(17.456 42.122)" fill="#815b16"/>
        <path id="Fill_22" data-name="Fill 22" d="M0,22.382l24.388.714L21.4,0H29.45l4.371,28.334-6.212,5.238L9.2,36.43Z" transform="translate(21.82 43.26)" fill="#3ad29f"/>
        <path id="Fill_23" data-name="Fill 23" d="M.2,1.4,0,3.849,4.167,6.831,6.546,4.651,4.124,1.326.463,0Z" transform="translate(5.455 209.471)" fill="#534741"/>
        <path id="Fill_24" data-name="Fill 24" d="M0,1.2l1.43,7.64L6.1,36.476,2.184,78.814l5.251.877L18.292,41.474,24,0Z" transform="translate(4.364 132.058)" fill="#58585b"/>
        <path id="Fill_25" data-name="Fill 25" d="M22.911,1.36l-6,74.68-5.22.236L7.476,37.082,0,0Z" transform="translate(20.729 134.335)" fill="#58585b"/>
        <path id="Fill_26" data-name="Fill 26" d="M0,.28.117,2.509l5.6,3.183L7.637,2.539,4.327,0Z" transform="translate(32.73 210.61)" fill="#534741"/>
        <path id="Fill_27" data-name="Fill 27" d="M43.819,54.27c-.05-.23-.114-.475-.185-.727-.29-2.1-.991-5.856-2.568-12.6l-.233-.989a194.474,194.474,0,0,0-9.3-28.411c-4.86-8.684-9.7-11.454-9.7-11.454L21.908,0C18.3.141,14.476.882,11.544.882,5.1,3.02,5.064,17.9,4.452,31.553h0L2.427,49.6c-.073.4-.145.8-.219,1.195a.061.061,0,0,0,0,.006c-.021.4-.035.773-.043,1.133L0,74.837s15.231,3.827,28.216,2.153S43.7,75.315,43.7,75.315s2.243-11.237.123-21.046" transform="translate(0 64.891)" fill="#3ad29f"/>
        <path id="Fill_28" data-name="Fill 28" d="M0,.475,5.826,29.208,7.69,76.7l7.69.712L24,74.8,17.943,35.382,5.127,0Z" transform="translate(16.365 64.891)" fill="#d2e7ee"/>
        <path id="Fill_30" data-name="Fill 30" d="M1.218,28.41C6.367,8.05,26.358-4.1,45.87,1.271S77.027,27.5,71.879,47.865,46.739,80.376,27.227,75-3.93,48.771,1.218,28.41" transform="translate(46.913)" fill="#ffd816"/>
        <path id="Fill_31" data-name="Fill 31" d="M1.036,24.17C5.416,6.848,22.424-3.489,39.024,1.081S65.53,23.4,61.151,40.721,39.763,68.38,23.163,63.809-3.344,41.492,1.036,24.17" transform="translate(52 6)" fill="#ffcd00"/>
        <path id="Fill_32" data-name="Fill 32" d="M51.494,0a33.756,33.756,0,0,1,.452,18.129c-4.33,17.258-21.145,27.556-37.557,23A30.321,30.321,0,0,1,0,32.2,31.438,31.438,0,0,0,21.424,53.567c16.412,4.553,33.226-5.745,37.557-23A33.47,33.47,0,0,0,51.494,0" transform="translate(53.459 15.938)" fill="#fdbe11"/>
        <path id="Fill_33" data-name="Fill 33" d="M2.092,24.316C5.923,9.419,20.8.528,35.324,4.459A27.377,27.377,0,0,1,53.459,20.632,27.544,27.544,0,0,0,34.138.93C19.616-3,4.738,5.89.906,20.787A28.445,28.445,0,0,0,2.128,38.707a28.463,28.463,0,0,1-.036-14.39" transform="translate(55.641 9.107)" fill="#ffdc53"/>
        <path id="Fill_35" data-name="Fill 35" d="M1.368,0,7.981.926l23.26,14.587L51.992,1.852l3.649,4.4L37.854,22.923l-8.665,4.4L0,12.272Z" transform="translate(8.728 68.306)" fill="#3ad29f"/>
        <path id="Fill_36" data-name="Fill 36" d="M13.7,4.072C10.483-3.31,1.368.315.113,7.231-.6,11.163,2.175,15.81,5.824,17.539c.224.668.748,2.535,1.364,2.868.668.361,2.3-.534,2.945-.862a1.085,1.085,0,0,0,.468-.369,2.118,2.118,0,0,0-.067-1.221A6.38,6.38,0,0,0,12,17.271a7.737,7.737,0,0,0,3.26-6.16A15.711,15.711,0,0,0,13.7,4.072" transform="translate(9.819 45.537)" fill="#f5ceb0"/>
        <path id="Fill_37" data-name="Fill 37" d="M11.387,39.331a29.269,29.269,0,0,0,4.978-1.939c-1.1.551-4.424-12.976-4.668-13.908-.7-2.672-1.768-6.452-.98-9.095s2.73-4.006,4.549-6.676a5.594,5.594,0,0,0,1.088-3.2A4.4,4.4,0,0,0,14.669,1.3,5.092,5.092,0,0,0,10.032.153a12.927,12.927,0,0,0-8.469,6.7C-.489,11.012-.2,16.243.628,20.746a32.175,32.175,0,0,1,.6,3.637,27.785,27.785,0,0,1-.154,3.949,18.988,18.988,0,0,0,.271,5.809A7.648,7.648,0,0,0,4.3,38.815c2.124,1.389,4.793,1.175,7.082.517" transform="translate(4.364 40.984)" fill="#815b16"/>
        <path id="Fill_38" data-name="Fill 38" d="M0,4.441,3.649.241,9.362,0l.457,2.894-7,5.075Z" transform="translate(61.096 67.167)" fill="#f5ceb0"/>
        <path id="Fill_39" data-name="Fill 39" d="M.36,7.969,0,2.875,3.884,0,6.546,2,5.611,3.114,4.1,2.635,2.59,5.749l.279,2.22Z" transform="translate(43.64 35.291)" fill="#f5ceb0"/>
        <path id="Fill_40" data-name="Fill 40" d="M32.73,0,20.119,16.722,3.51,5.181,0,10.269,15.755,24.557l7.581,2.765,8.868-6.89Z" transform="translate(182.197 67.167)" fill="#3ad29f"/>
        <path id="Fill_41" data-name="Fill 41" d="M53.379,89.921a.968.968,0,0,1-.733-.25c-2.448-1.648-4.271-4.094-6.681-5.682a20.892,20.892,0,0,0-8.07-2.913,53.235,53.235,0,0,0-12.344-.866,67.349,67.349,0,0,0-9.6,1.456c-2.642.529-5.041,1.866-7.776,1.806A14,14,0,0,1,.011,80.465,27.363,27.363,0,0,1,1.334,73.2a48.752,48.752,0,0,0,2.3-7.319A145.945,145.945,0,0,0,7.121,50.14c1.324-7.3,2.922-14.43,4.183-21.747.874-5.071,1.634-10.223,2.965-15.07,1.042-3.8,2.984-9.373,5.671-11.218a6.34,6.34,0,0,1,2.971-.878L32.183.113a5.4,5.4,0,0,1,3.377.33c1.615.888,2.655,3.163,3.574,5.29a143.507,143.507,0,0,1,9.052,30.743c1.044,5.642,2.04,11.3,2.907,16.988.968,6.348,1.777,12.738,2.31,19.159.059.714.28,2.708.487,5.1C54.327,82.762,54.7,89.567,53.379,89.921Z" transform="translate(196.634 61.475)" fill="#3ad29f"/>
        <path id="Fill_42" data-name="Fill 42" d="M12,0s.237,8.511-5.115,10.819S-2.226,8.072,1.5,1.15Z" transform="translate(218.199 61.475)" fill="#d2e7ee"/>
        <path id="Fill_43" data-name="Fill 43" d="M50.946,0,45.138,4.468,26.987,23.818.692,25.538,0,31.975l29.2,5.594L56.16,12.52l.572-8.505Z" transform="translate(182.197 70.583)" fill="#3ad29f"/>
        <path id="Fill_44" data-name="Fill 44" d="M7.637,3.569C5.7,4.8,3.792,7.76,4.081,10.357c.14,1.251.831,2.179.932,3.524.208,2.651,4.041,5.157,1.958,7.884-1.071,1.4-2.855,1.794-4.5,2.1a1.117,1.117,0,0,1-.6,0,.954.954,0,0,1-.5-.871,4.181,4.181,0,0,1,.17-1.075C2.37,18.207.521,14.089.105,10.4S.467,2.613,3.074,0A6.026,6.026,0,0,1,7.222,3.147Z" transform="translate(213.835 40.984)" fill="#625237"/>
        <path id="Fill_45" data-name="Fill 45" d="M.467,4.414C2.063-2.891,11.214-.3,13.684,6.15a9.114,9.114,0,0,1-3.391,10.336c.222.632.256,1.383.536,2.025a13.091,13.091,0,0,1-3.181.832.994.994,0,0,1-1.156-1c.016-.364.032-.72.033-.959a6.352,6.352,0,0,1-1.988-.6A8.45,8.45,0,0,1,.348,11.24a14.835,14.835,0,0,1,.12-6.826" transform="translate(216.017 43.26)" fill="#f5ceb0"/>
        <path id="Fill_46" data-name="Fill 46" d="M8.91,21.413c1.532-4.008,1.422-9.007-1.724-12.18a4.544,4.544,0,0,0-4.6-1.114q-.2.05-.406.11C1.05,8.564.318,7,.09,6.1A3.813,3.813,0,0,1,.848,2.971c5.68-7.612,15.82,1.073,18.2,7.4.169.449.313.907.455,1.366a49.34,49.34,0,0,1,1.663,17.382c-.225,3.636-2.123,7.229-1.253,10.76.791,3.21,3.619,5.354,6.082,7.485s4.917,5.019,4.5,8.3a6.839,6.839,0,0,1-3.346,4.821,11.9,11.9,0,0,1-5.718,1.5,21.4,21.4,0,0,0-4.746.354,4.465,4.465,0,0,0-3.368,3.117c-.183.884-.071,1.979-.786,2.5a2.217,2.217,0,0,1-1.181.311c-1.256.088-2.685.112-3.566-.813-1.364-1.432-.714-4.443-2.512-5.216A6.263,6.263,0,0,0,3.589,62C.685,61.612-.573,57.706.3,54.832s3.085-5.07,4.725-7.567c3.2-4.874,5.245-11.3,2.951-16.817A7.777,7.777,0,0,1,7.2,27.961a15.923,15.923,0,0,1,1.519-6.107q.1-.209.19-.441" transform="translate(217.108 37.568)" fill="#625237"/>
        <path id="Fill_47" data-name="Fill 47" d="M8.728,2.52,5.73,0,1.6.707,0,4.946,5.73,6.831Z" transform="translate(175.651 70.583)" fill="#f5ceb0"/>
        <path id="Fill_52" data-name="Fill 52" d="M7.091,0A7.25,7.25,0,0,0,0,7.4a7.251,7.251,0,0,0,7.091,7.4,7.251,7.251,0,0,0,7.091-7.4A7.25,7.25,0,0,0,7.091,0" transform="translate(97.099 149.135)" fill="#f5f5f5"/>
        <path id="Fill_53" data-name="Fill 53" d="M7.092,0A7.251,7.251,0,0,0,0,7.4a7.251,7.251,0,0,0,7.092,7.4,7.251,7.251,0,0,0,7.091-7.4A7.251,7.251,0,0,0,7.092,0" transform="translate(149.467 149.135)" fill="#f5f5f5"/>
        <path id="Fill_54" data-name="Fill 54" d="M121.329,0H99a1.981,1.981,0,0,0-1.922,1.681l-3.44,19.7H48.01L0,21.13l8.932,49.2,38.706.249H85.045l-1.074,6.15H7.164a2.052,2.052,0,0,0,0,4.1H85.6a1.981,1.981,0,0,0,1.922-1.681L100.627,4.1h20.7a2,2,0,0,0,1.954-2.05A2,2,0,0,0,121.329,0" transform="translate(81.825 63.752)" fill="#f5f5f5"/>
        <path id="Fill_55" data-name="Fill 55" d="M9.819,1.883,5.382,0,0,1.98.936,5.692H9.406Z" transform="translate(172.378 93.351)" fill="#f5ceb0"/>
        <path id="Fill_56" data-name="Fill 56" d="M4.364,0V4.649L1.7,7.969,0,6.2,1.608,1.55Z" transform="translate(175.651 69.444)" fill="#f5ceb0"/>
      </g>
    </g>
    <path id="Shape" d="M13.243,30h0l-2.754-.009.018-4.523c-.8,0-1.515-.012-2.2-.029l-.016,4.544-2.751-.011.014-4.593-.745-.01H4.752l-.161,0c-.329,0-.669-.01-1.006-.011L0,25.343l.56-3.3H.614c.893.016,1.346.02,1.569.02a1.938,1.938,0,0,0,.379-.012A.973.973,0,0,0,3.6,21.14l.027-7.246h.292a2.2,2.2,0,0,0-.292-.021L3.646,8.7a1.425,1.425,0,0,0-1.58-1.217,3.244,3.244,0,0,0-.618-.019c-.558,0-1.343.012-1.381.013L.075,4.527l3.8.015v.014h.149c.515,0,1.053-.008,1.6-.017L5.645,0,8.4.01,8.382,4.46l.176,0c.548-.008,1.231-.018,1.873-.018h.15L10.6.018l2.754.01-.016,4.54A10.581,10.581,0,0,1,17.89,5.817,4.267,4.267,0,0,1,20,9.276a4.3,4.3,0,0,1-2.379,4.64A5.241,5.241,0,0,1,20.7,15.7a5.4,5.4,0,0,1,.853,3.941,5.372,5.372,0,0,1-2.568,4.427,12.449,12.449,0,0,1-5.728,1.343L13.243,30Zm-3.136-14.01c-.338,0-.658.005-.927.011l-.106,0c-.235,0-.478.01-.669.01L8.382,22.1c.133,0,.283,0,.456.006h.084l.13,0c.248,0,.527.009.823.009h.013c1.538,0,6.218,0,6.227-3.034a2.4,2.4,0,0,0-.694-1.773C14.243,16.126,11.824,15.989,10.107,15.989Zm-.218-8.3c-.293,0-.567.006-.8.011l-.1,0c-.213,0-.4.009-.552.009l-.02,5.519c.13,0,.28,0,.454.007.244,0,.52.01.822.01H9.7c1.275,0,5.153,0,5.164-2.753a2.279,2.279,0,0,0-.646-1.683C13.215,7.8,11.267,7.687,9.889,7.687Z" transform="translate(124.8 91.455) rotate(3)" fill="#e69a24"/>
  </g>
</svg>
